<?xml version="1.0" standalone="no"?>
<!DOCTYPE svg PUBLIC "-//W3C//DTD SVG 20010904//EN"
 "http://www.w3.org/TR/2001/REC-SVG-20010904/DTD/svg10.dtd">
<svg version="1.0" xmlns="http://www.w3.org/2000/svg"
 width="300.000000pt" height="300.000000pt" viewBox="0 0 300.000000 300.000000"
 preserveAspectRatio="xMidYMid meet">
<metadata>
Created by potrace 1.11, written by Peter Selinger 2001-2013
</metadata>
<g transform="translate(0.000000,300.000000) scale(0.100000,-0.100000)"
fill="#000000" stroke="none">
<path d="M1839 2128 l-36 -9 0 -290 0 -289 49 0 48 0 0 300 c0 234 -3 300 -12
299 -7 -1 -29 -5 -49 -11z"/>
<path d="M1429 2126 c-2 -2 -20 -6 -39 -8 l-35 -4 -3 -288 -2 -287 42 3 c35 2
44 7 46 25 l3 22 25 -22 c74 -65 187 -41 241 50 24 41 28 59 28 123 0 96 -22
142 -84 182 -41 26 -52 29 -104 25 -44 -4 -63 -11 -78 -28 -19 -22 -19 -22
-19 94 0 103 -5 129 -21 113z m180 -300 c21 -21 25 -35 25 -86 0 -52 -3 -64
-26 -87 -59 -59 -145 -20 -155 69 -13 112 83 176 156 104z"/>
<path d="M480 1814 l0 -285 53 3 52 3 0 105 0 105 100 5 c121 6 159 24 193 90
45 89 15 196 -68 238 -40 20 -59 22 -187 22 l-143 0 0 -286z m292 169 c27 -28
27 -88 -1 -116 -16 -17 -35 -21 -103 -23 l-83 -3 1 72 c1 40 2 77 3 84 1 8 25
11 82 9 65 -2 84 -7 101 -23z"/>
<path d="M1037 1936 c-49 -18 -76 -43 -93 -83 -21 -50 -19 -55 26 -48 25 4 50
17 69 35 22 22 39 30 66 30 46 0 75 -15 75 -39 0 -25 -18 -38 -65 -46 -130
-22 -193 -71 -182 -141 3 -20 13 -47 22 -61 35 -53 131 -67 205 -30 31 16 34
16 58 -3 25 -20 57 -25 86 -14 21 8 22 74 2 74 -20 0 -22 13 -24 132 -1 118
-12 153 -58 183 -36 23 -138 30 -187 11z m143 -241 c0 -74 -98 -118 -136 -61
-23 37 -6 58 63 77 32 9 61 17 66 18 4 0 7 -15 7 -34z"/>
<path d="M2098 1940 c-123 -37 -183 -183 -123 -300 84 -163 334 -136 385 41
46 161 -101 308 -262 259z m105 -91 c54 -24 76 -113 44 -176 -37 -71 -147 -65
-178 10 -44 106 40 209 134 166z"/>
<path d="M140 1418 c-41 -21 -90 -81 -77 -94 3 -3 22 -9 42 -14 33 -7 40 -5
59 16 16 19 32 25 65 27 37 1 47 -3 72 -31 16 -18 29 -37 29 -42 0 -6 -28 -10
-62 -11 -35 -1 -94 -2 -133 -3 l-70 -1 1 -56 c0 -32 8 -74 17 -96 61 -135 280
-115 334 30 24 66 11 171 -27 223 -53 70 -168 94 -250 52z m190 -233 c0 -4 -7
-19 -15 -34 -34 -68 -136 -55 -150 18 -4 20 0 21 81 21 46 0 84 -2 84 -5z"/>
<path d="M490 1141 l0 -300 23 4 c12 3 34 7 49 11 l27 5 -1 290 0 289 -49 0
-49 0 0 -299z"/>
<path d="M660 1141 l0 -300 23 4 c12 3 34 7 50 11 l27 6 0 289 0 289 -50 0
-50 0 0 -299z"/>
<path d="M900 1418 c-41 -21 -90 -81 -77 -94 3 -3 22 -9 42 -14 32 -7 40 -5
59 15 41 46 130 33 155 -22 6 -14 10 -27 8 -29 -2 -3 -63 -5 -136 -6 l-133 -1
5 -62 c9 -119 74 -186 175 -184 135 3 221 128 185 268 -17 67 -37 94 -94 125
-60 33 -128 35 -189 4z m190 -233 c0 -22 -35 -65 -60 -74 -48 -16 -89 5 -104
57 -7 22 -6 22 78 22 47 0 86 -2 86 -5z"/>
<path d="M1345 1428 c-3 -7 -36 -101 -74 -208 l-69 -195 45 -3 c25 -2 49 0 53
5 4 4 27 66 50 136 23 71 44 127 45 125 2 -2 24 -62 48 -133 l44 -130 51 -3
51 -3 -9 28 c-4 15 -37 109 -73 208 l-65 180 -46 3 c-31 2 -48 -1 -51 -10z"/>
<path d="M1632 1432 c-17 -12 -12 -78 6 -74 15 3 15 2 16 -183 l1 -150 51 -3
50 -3 1 121 c1 161 1 155 21 179 26 33 79 35 108 6 23 -23 24 -30 24 -165 l0
-140 50 0 50 0 0 153 c0 168 -9 201 -63 241 -42 31 -148 30 -178 -1 -22 -22
-23 -22 -40 -2 -19 22 -77 35 -97 21z"/>
<path d="M2164 1421 c-81 -37 -125 -110 -120 -201 6 -123 82 -194 206 -195 84
0 141 30 178 95 48 81 33 206 -32 262 -64 57 -158 72 -232 39z m125 -82 c80
-28 87 -175 10 -214 -55 -29 -106 -13 -136 44 -31 57 -13 139 36 166 32 17 49
18 90 4z"/>
<path d="M2520 1154 l0 -285 53 3 52 3 0 173 c0 94 2 172 5 172 3 0 24 -28 47
-63 23 -34 72 -105 108 -157 37 -52 72 -103 78 -112 9 -13 25 -18 59 -18 l48
0 0 286 0 285 -52 -3 -53 -3 0 -172 c0 -94 -3 -169 -7 -167 -4 3 -60 81 -125
174 l-117 170 -48 0 -48 0 0 -286z"/>
</g>
</svg>
