<?xml version="1.0" encoding="UTF-8"?>
<svg width="945px" height="425px" viewBox="0 0 945 425" version="1.1" xmlns="http://www.w3.org/2000/svg" xmlns:xlink="http://www.w3.org/1999/xlink">
    <!-- Generator: Sketch 49.1 (51147) - http://www.bohemiancoding.com/sketch -->
    <title>Group 18</title>
    <desc>Created with Sketch.</desc>
    <defs></defs>
    <g id="Layouts" stroke="none" stroke-width="1" fill="none" fill-rule="evenodd">
        <g id="100" transform="translate(-248.000000, -248.000000)" fill="#000000">
            <g id="Group-18" transform="translate(248.000000, 248.000000)">
                <path d="M216.380202,10 L137,10 L137,195 L171.19385,195 L171.19385,124.148228 L215.401347,124.148228 C255.95156,124.148228 275,96.349557 275,68.550886 L275,64.8610362 C275,37.3098804 256.193176,10 216.380202,10 Z M240.316723,68.550886 C240.316723,80.8517719 231.769293,93.3980932 214.916049,93.3980932 L171.19385,93.3980932 L171.19385,40.5067795 L215.157666,40.5067795 C232.010909,40.5067795 240.316723,52.8055855 240.316723,65.1064715 L240.316723,68.550886 Z" id="Fill-1"></path>
                <path d="M403.083513,171.419345 C396.6752,171.419345 397.167025,164.102037 397.167025,153.617812 L397.167025,152.642583 L397.167025,106.794458 L397.167025,105.578 C397.167025,72.9006185 375.476712,59 346.392352,59 C311.143508,59 286,78.0200543 286,109.965498 L316.074262,103.62548 C314.594619,99.4812733 317.059996,95.821588 320.017197,92.8959016 C322.976483,89.9681534 329.384795,85.5785929 345.158622,85.5785929 C356.497687,85.5785929 365.371376,89.7248617 365.371376,99.724565 C365.371376,106.794458 361.182528,110.942789 341.955507,114.598351 C322.236662,118.258036 286.495993,122.158951 286.495993,157.030081 C286.495993,184.344735 308.432219,198 330.122533,198 C346.471544,198 359.827926,191.870285 368.837075,182.355103 C373.56568,192.251717 383.648091,198 394.209824,198 C399.388574,198 404.809068,196.536126 409,193.61044 L409,170.444116 C407.028532,171.176054 404.809068,171.419345 403.083513,171.419345 M336.03902,171.662637 C325.439776,171.662637 318.289558,165.322619 318.289558,155.079624 C318.289558,143.374816 327.411243,140.692422 343.187154,137.27809 C355.757866,134.597757 356.991596,134.352404 364.877467,130.449427 L364.877467,141.910942 C364.877467,167.51843 349.843462,171.662637 336.03902,171.662637" id="Fill-3"></path>
                <path d="M491.914616,59.2591046 C479.362363,59.2591046 463.607537,63.7036418 455.242143,77.2835924 L455.242143,47.9003789 L455.242143,0 L423,6.91418849 L423,196.791332 L450.31863,196.791332 C450.31863,194.075342 450.564182,191.359352 450.811814,188.643362 C451.146846,184.70194 451.893905,181.877394 453.381779,179.593541 C453.512879,179.812741 453.631493,180.029853 453.764673,180.246965 C462.37978,194.321681 477.391709,200 493.146534,200 C531.048845,200 550,165.184806 550,128.394727 C550,82.9619114 520.958348,59.2591046 491.914616,59.2591046 M486.497919,169.136666 C469.269785,169.136666 455.242143,154.569272 455.242143,129.38217 C455.242143,104.938259 469.269785,90.3708652 486.497919,90.3708652 C502.743847,90.3708652 517.019122,103.209712 517.019122,129.38217 C517.019122,156.295732 502.743847,169.136666 486.497919,169.136666" id="Fill-5"></path>
                <polygon id="Fill-7" points="567 195 567 6.85125072 599 0 599 195"></polygon>
                <polygon id="Fill-9" points="227 229 227 418.113615 195 425 195 229"></polygon>
                <polygon id="Fill-12" points="170 229 170 418.113615 138 425 138 229"></polygon>
                <path d="M713.686546,128.5 C713.686546,107.771026 701.7518,88.9945415 680.122963,88.9945415 C658.246098,88.9945415 646.313454,107.771026 646.313454,128.5 C646.313454,149.472263 658.246098,167.760109 680.122963,167.760109 C701.7518,167.760109 713.686546,149.472263 713.686546,128.5 M613,128.5 C613,90.4583939 639.601998,59 680.122963,59 C720.398002,59 747,90.4583939 747,128.5 C747,166.541606 720.398002,198 680.122963,198 C639.601998,198 613,166.541606 613,128.5" id="Fill-15"></path>
                <path d="M682.315556,294.5 C682.315556,315.228974 694.2482,334.005458 715.877037,334.005458 C737.756004,334.005458 749.69075,315.228974 749.69075,294.5 C749.69075,273.527737 737.756004,255.239891 715.877037,255.239891 C694.2482,255.239891 682.315556,273.527737 682.315556,294.5 M783,294.5 C783,332.541606 756.400104,364 715.877037,364 C675.6041,364 649,332.541606 649,294.5 C649,256.458394 675.6041,225 715.877037,225 C756.400104,225 783,256.458394 783,294.5" id="Fill-17"></path>
                <polygon id="Fill-19" points="910.792848 345.608821 910.792848 229 945 229 945 414 914.014244 414 832.209248 296.159842 832.209248 414 798 414 798 229 828.987852 229"></polygon>
                <path d="M510.884035,251.661882 C517.257196,251.661882 516.768069,258.999483 516.768069,269.517815 L516.768069,361 L548.880515,361 L548.880515,284.193017 C548.880515,265.11484 560.155311,255.086647 575.600125,255.086647 C590.307103,255.086647 598.887555,263.646493 598.887555,281.992564 L598.887555,361 L631,361 L631,273.922857 C631,239.675203 608.446261,225 580.50176,225 C562.891108,225 551.869165,230.073037 545.452479,242.020422 C541.037898,231.305622 530.660526,225 519.70905,225 C514.558706,225 509.167944,226.466279 505,229.402974 L505,252.640091 C506.960654,251.905917 509.167944,251.661882 510.884035,251.661882" id="Fill-22"></path>
                <polygon id="Fill-24" points="500 365 466.528167 365 435.5 275.994254 404.471833 365 371 365 420.84213 230 450.15787 230"></polygon>
                <path d="M306.791781,225 C275.179397,225 253.198977,238.168681 249,264.992628 L278.142275,271.089354 C278.38866,266.699794 280.366,263.287524 283.330966,260.359776 C288.513392,255.238278 295.677335,253.044529 306.296924,253.044529 C321.113403,253.044529 335.4392,264.260691 337.414452,282.064286 L249.496945,282.55087 L249.496945,297.183426 C249.496945,348.148924 279.131989,364 306.791781,364 C339.634,364 371,340.590385 371,294.744323 C371,248.409615 339.634,225 306.791781,225 M308.025792,335.957533 C293.699995,335.957533 282.094867,326.446475 282.834021,307.426421 L337.414452,307.426421 C335.931969,324.739309 323.583512,335.957533 308.025792,335.957533" id="Fill-26"></path>
                <path d="M57.7896935,225 C26.1773092,225 4.19897654,238.168681 0,264.992628 L29.1422752,271.089354 C29.3886597,266.699794 31.3659998,263.287524 34.3288778,260.359776 C39.5133923,255.238278 46.6773349,253.044529 57.2969245,253.044529 C72.1113146,253.044529 86.4371117,264.260691 88.4123637,282.064286 L0.49694501,282.55087 L0.49694501,297.183426 C0.49694501,348.148924 30.1299012,364 57.7896935,364 C90.6340002,364 122,340.590385 122,294.744323 C122,248.409615 90.6340002,225 57.7896935,225 M59.025792,335.957533 C44.6999949,335.957533 33.0948673,326.446475 33.8340208,307.426421 L88.4123637,307.426421 C86.9319687,324.739309 74.5835116,335.957533 59.025792,335.957533" id="Fill-28"></path>
            </g>
        </g>
    </g>
</svg>