<?xml version="1.0" standalone="no"?>
<!DOCTYPE svg PUBLIC "-//W3C//DTD SVG 20010904//EN"
 "http://www.w3.org/TR/2001/REC-SVG-20010904/DTD/svg10.dtd">
<svg version="1.0" xmlns="http://www.w3.org/2000/svg"
 width="840.000000pt" height="840.000000pt" viewBox="0 0 840.000000 840.000000"
 preserveAspectRatio="xMidYMid meet">
<metadata>
Created by potrace 1.11, written by Peter Selinger 2001-2013
</metadata>
<g transform="translate(0.000000,840.000000) scale(0.100000,-0.100000)"
fill="#000000" stroke="none">
<path d="M3955 6010 c-38 -9 -90 -20 -115 -24 -25 -4 -51 -10 -59 -15 -11 -7
-13 -141 -13 -772 1 -420 1 -785 1 -811 l1 -48 119 0 119 0 -2 31 c-1 16 1 32
6 35 5 3 6 9 3 14 -10 15 6 57 21 57 8 0 14 -5 14 -12 0 -21 67 -82 113 -102
95 -44 129 -51 228 -48 88 3 144 20 229 69 25 14 42 26 39 26 -4 0 12 19 35
43 39 38 123 167 110 167 -4 0 1 12 11 26 11 18 12 24 4 18 -11 -6 -12 -5 -2
7 31 38 60 283 38 319 -3 6 0 10 7 10 9 0 9 3 -2 10 -8 5 -12 10 -9 10 4 0 2
19 -3 43 -5 23 -10 51 -12 62 -4 25 -12 47 -42 110 -35 73 -43 84 -107 148
-90 91 -207 137 -352 138 -86 1 -201 -53 -264 -124 l-26 -28 1 330 c0 232 -3
331 -10 330 -6 0 -42 -9 -81 -19z m469 -782 c32 -17 85 -65 79 -72 -4 -3 -1
-6 5 -6 12 0 44 -64 59 -120 6 -19 6 -200 0 -220 -20 -76 -36 -107 -81 -154
-51 -54 -95 -74 -171 -78 -75 -4 -180 58 -215 128 -8 16 -19 32 -25 36 -5 4
-7 8 -3 8 4 0 3 12 -3 28 -12 28 -21 87 -21 137 -3 174 95 318 227 333 22 2
41 5 43 7 5 5 84 -15 106 -27z"/>
<path d="M5259 6026 c-4 -4 -204 -47 -231 -49 -11 -1 -18 -10 -19 -22 -2 -55
-4 -1581 -2 -1590 5 -15 262 -12 271 2 4 7 6 31 5 55 -4 51 -4 49 0 118 2 30
-1 63 -5 72 -4 9 -4 19 0 22 10 6 8 79 -2 95 -4 6 -4 11 1 11 10 0 10 291 -1
308 -4 6 -3 12 1 12 10 0 9 182 -1 198 -3 6 -3 13 2 16 10 6 8 78 -2 95 -4 6
-3 11 1 11 10 0 9 182 -1 198 -3 6 -3 13 2 16 10 6 8 78 -2 95 -4 6 -3 11 1
11 10 0 9 182 -1 198 -3 6 -3 13 1 15 12 7 9 110 -3 114 -6 2 -12 2 -15 -1z"/>
<path d="M1334 5942 l-21 -3 1 -792 1 -792 130 0 c72 0 137 1 146 3 13 3 15
39 14 290 0 158 1 294 3 302 3 13 35 15 221 14 243 -1 319 10 417 56 61 30
174 131 174 157 0 7 4 13 9 13 7 0 42 79 43 97 0 5 3 13 7 18 10 14 15 68 15
155 0 97 -6 139 -21 170 -7 14 -13 33 -13 43 0 9 -4 17 -9 17 -5 0 -14 13 -20
28 -12 27 -74 99 -117 133 -33 26 -106 57 -174 75 -54 14 -125 17 -425 18
-198 0 -369 0 -381 -2z m381 -263 c6 0 38 2 73 4 34 1 62 -1 62 -6 0 -4 5 -5
11 -1 15 9 110 9 169 -1 87 -13 149 -76 164 -165 3 -14 5 -27 6 -30 3 -6 3 -6
-5 -69 -6 -51 -26 -90 -67 -133 -10 -10 -20 -18 -23 -18 -3 0 -19 -7 -35 -15
-24 -12 -68 -16 -212 -16 -101 0 -199 0 -218 0 l-35 1 0 222 c0 123 3 225 7
229 4 3 27 4 50 2 24 -2 48 -4 53 -4z"/>
<path d="M3035 5521 c-2 -1 -21 -5 -42 -8 -101 -12 -218 -68 -288 -138 -48
-49 -97 -142 -101 -195 -2 -19 -4 -35 -4 -35 -1 0 -3 -12 -4 -27 -4 -38 -11
-39 232 17 16 4 22 13 22 32 0 43 67 99 136 113 173 36 295 -11 285 -110 -4
-43 -14 -58 -51 -79 -22 -12 -40 -19 -40 -15 0 3 -6 2 -12 -4 -12 -9 -34 -15
-98 -27 -14 -3 -36 -7 -50 -10 -14 -3 -41 -8 -60 -11 -86 -13 -198 -59 -254
-103 -43 -34 -103 -132 -104 -171 0 -8 -3 -30 -6 -48 -3 -18 -2 -31 2 -28 4 2
6 -15 6 -37 -3 -100 74 -212 181 -263 28 -13 58 -24 68 -24 9 0 17 -4 17 -9 0
-17 201 -7 260 14 59 20 124 58 152 89 18 19 18 18 37 -5 41 -52 58 -68 65
-62 3 3 6 2 6 -4 0 -15 85 -43 130 -43 20 0 57 7 83 16 l46 15 0 104 c1 104 0
104 -22 96 -31 -11 -52 -4 -67 23 -15 30 -20 424 -5 430 7 3 7 5 0 5 -6 1 -10
39 -9 96 0 52 -3 95 -7 95 -4 0 -6 9 -4 20 2 11 0 20 -5 20 -5 0 -7 6 -4 14 5
13 -15 54 -53 112 -42 65 -156 125 -263 139 -62 8 -170 12 -175 6z m231 -653
c-8 -5 -7 -8 2 -8 7 0 11 -4 8 -8 -3 -5 -6 -36 -8 -70 -2 -34 -6 -62 -10 -62
-3 0 -5 -8 -4 -17 5 -28 -52 -99 -92 -117 -62 -28 -138 -38 -188 -24 -35 9
-98 64 -89 78 4 6 2 10 -3 10 -8 0 -10 69 -3 102 4 25 81 71 135 83 11 2 30 6
41 9 122 27 160 38 183 50 24 13 28 12 33 -2 4 -10 1 -20 -5 -24z"/>
<path d="M5947 5523 c-2 -1 -27 -5 -57 -8 -59 -7 -133 -30 -193 -61 -59 -31
-151 -114 -183 -166 -16 -26 -32 -48 -37 -48 -4 0 -6 -3 -5 -7 1 -5 -3 -18
-10 -30 -7 -13 -9 -23 -5 -23 4 0 2 -4 -5 -9 -7 -4 -15 -17 -17 -27 -2 -10 -4
-19 -5 -19 -1 0 -3 -9 -5 -20 -2 -11 -7 -36 -10 -55 -4 -19 -8 -54 -9 -77 0
-24 -5 -43 -9 -43 -5 0 -5 -6 -1 -12 5 -7 9 -26 10 -43 5 -73 21 -153 35 -170
4 -5 8 -14 9 -20 11 -50 81 -154 143 -212 25 -22 48 -39 51 -35 3 3 6 1 6 -5
0 -11 113 -70 150 -77 14 -3 41 -9 60 -14 109 -27 278 -4 385 52 81 42 166
116 203 179 9 15 20 27 25 27 4 0 6 4 2 9 -3 5 2 17 11 25 8 9 12 16 9 16 -4
0 0 11 9 25 9 14 14 25 11 25 -3 0 -1 8 4 18 10 18 15 40 27 111 7 44 8 147 1
186 -3 17 -9 48 -12 70 -3 21 -9 42 -13 45 -4 3 -8 12 -10 20 -1 8 -16 42 -33
75 -62 124 -198 237 -334 276 -42 13 -192 29 -198 22z m135 -280 c66 -27 130
-87 140 -133 2 -8 9 -21 16 -28 7 -8 10 -18 7 -23 -4 -5 -2 -9 4 -9 5 0 8 -9
6 -20 -2 -11 -1 -20 3 -20 12 0 6 -174 -7 -198 -6 -12 -9 -22 -6 -22 3 0 -2
-15 -12 -32 -56 -102 -124 -153 -215 -164 -57 -7 -168 11 -168 27 0 5 -6 9
-12 9 -7 0 -26 11 -42 25 -16 14 -26 25 -23 25 3 0 -5 12 -18 26 -14 15 -25
33 -25 40 0 8 -4 14 -8 14 -4 0 -9 12 -10 26 -1 15 -6 32 -11 38 -4 6 -7 21
-6 34 1 12 -2 22 -6 22 -5 0 -6 6 -4 13 3 10 11 80 17 155 1 6 6 12 11 12 6 0
8 3 4 6 -9 9 26 73 60 110 78 85 196 111 305 67z"/>
<path d="M461 4078 c-128 -31 -190 -72 -278 -182 -7 -8 -13 -20 -13 -25 0 -5
-5 -22 -11 -38 -6 -15 -9 -28 -8 -28 1 0 -3 -10 -10 -23 -15 -28 -19 -26 114
-52 22 -4 47 -10 55 -13 33 -12 81 -16 75 -7 -3 6 -1 10 6 10 7 0 10 3 6 6
-12 12 24 64 61 87 72 45 177 56 257 26 51 -19 131 -84 137 -110 2 -8 7 -17
11 -20 4 -3 14 -27 22 -52 l14 -47 -107 -1 c-227 -2 -657 -7 -658 -8 -1 0 2
-19 6 -41 4 -22 4 -40 -1 -40 -4 0 -4 -13 1 -30 5 -19 5 -30 -1 -30 -6 0 -7
-5 -3 -11 4 -6 8 -32 9 -58 2 -25 6 -62 10 -81 4 -19 8 -41 8 -47 0 -7 4 -13
9 -13 5 0 6 -4 3 -10 -10 -15 53 -135 97 -185 47 -53 96 -86 168 -115 284
-112 625 49 706 333 8 29 18 59 21 67 19 48 19 216 0 332 -2 10 -6 21 -10 24
-4 4 -7 15 -7 24 0 19 -61 143 -72 148 -5 2 -8 10 -8 18 0 9 -4 12 -10 9 -5
-3 -10 -1 -10 5 0 17 -65 77 -123 114 -123 78 -308 104 -466 64z m431 -706
c-1 -7 -4 -20 -5 -30 -5 -27 -39 -95 -56 -112 -28 -27 -91 -73 -91 -66 0 4 -6
4 -12 -1 -25 -15 -97 -21 -143 -12 -39 8 -94 48 -119 86 -25 38 -47 116 -38
141 6 18 468 13 464 -6z"/>
<path d="M2625 4084 c-189 -40 -300 -132 -340 -283 l-13 -49 32 -5 c48 -8 95
-17 158 -32 l58 -13 19 43 c56 128 287 149 407 38 37 -35 59 -69 78 -123 12
-34 12 -42 1 -46 -8 -3 -176 -7 -374 -8 -198 -1 -363 -5 -366 -8 -11 -10 -13
-58 -4 -64 5 -3 6 -13 1 -22 -9 -21 -9 -43 1 -59 5 -8 3 -13 -3 -13 -6 0 -8
-5 -4 -12 5 -7 9 -28 9 -48 1 -27 18 -114 30 -160 8 -30 39 -90 47 -90 5 0 6
-4 3 -10 -3 -5 -1 -10 4 -10 6 0 11 -6 11 -14 0 -18 103 -112 148 -135 56 -28
141 -54 157 -47 8 3 17 2 19 -3 7 -11 201 -2 201 9 0 1 10 3 23 6 64 12 186
85 240 144 57 61 127 184 116 201 -3 5 0 9 6 9 6 0 8 4 5 10 -3 5 -1 19 5 29
6 11 11 38 13 61 1 22 4 40 7 40 16 0 -4 210 -26 287 -20 69 -68 166 -77 157
-4 -4 -7 0 -7 9 0 9 -5 17 -12 17 -6 0 -8 3 -5 6 10 10 -87 97 -144 130 -34
20 -109 49 -160 60 -50 11 -206 10 -264 -2z m407 -700 c8 -7 -24 -104 -34
-104 -5 0 -7 -4 -4 -9 9 -14 -65 -82 -111 -103 -85 -37 -184 -24 -254 34 -34
29 -80 164 -61 183 7 7 457 7 464 -1z"/>
<path d="M4525 4083 c-21 -7 -42 -18 -45 -24 -4 -5 -6 -51 -6 -102 l1 -92 27
3 c30 4 61 -14 67 -38 2 -8 5 -213 5 -455 l1 -440 129 -3 c70 -1 133 2 140 7
8 7 11 105 10 348 -1 202 2 356 8 383 14 60 63 123 113 145 26 12 65 18 110
19 58 0 76 -4 107 -24 45 -30 76 -83 82 -139 2 -23 6 -45 9 -47 3 -3 2 -18 -3
-33 -4 -16 -4 -34 1 -42 4 -8 3 -19 -3 -26 -6 -7 -6 -13 -1 -13 5 0 9 -9 9
-20 0 -11 -4 -20 -9 -20 -4 0 -5 -6 -1 -12 12 -19 12 -48 1 -48 -6 0 -6 -5 -1
-12 11 -16 11 -39 1 -55 -5 -7 -4 -13 0 -13 10 0 9 -72 -1 -89 -4 -6 -4 -11 1
-11 4 0 8 -11 8 -25 0 -14 -4 -25 -8 -25 -5 0 -5 -5 -1 -11 8 -14 9 -92 1
-106 -3 -5 -2 -15 3 -23 5 -9 5 -19 -2 -27 -6 -7 -6 -13 -1 -13 5 0 9 -15 9
-32 l-1 -33 136 -3 137 -3 -2 76 c-1 42 1 78 6 81 5 3 5 10 1 17 -9 15 -10
458 0 464 4 2 5 9 1 14 -3 6 -7 50 -9 97 -3 100 -19 169 -51 225 -68 121 -189
186 -357 192 -144 5 -225 -23 -297 -101 -26 -29 -35 -34 -39 -22 -12 30 -59
77 -100 98 -52 26 -132 32 -186 13z"/>
<path d="M6160 4084 c-135 -28 -271 -119 -346 -234 -35 -52 -84 -163 -84 -189
0 -10 -3 -21 -7 -25 -10 -9 -13 -237 -4 -251 4 -5 8 -23 10 -40 2 -16 7 -33
13 -36 5 -3 8 -10 6 -15 -3 -9 41 -113 52 -124 3 -3 18 -23 34 -45 81 -110
191 -179 333 -208 188 -39 379 14 516 144 37 35 67 68 67 73 0 5 11 24 25 41
13 18 21 35 18 39 -4 3 -1 6 5 6 7 0 11 3 10 8 -1 4 4 21 11 37 7 17 13 38 14
48 1 9 4 17 7 17 4 0 7 6 7 13 1 6 4 37 9 67 12 90 0 245 -22 282 -3 4 -7 17
-9 28 -6 30 -47 110 -57 110 -4 0 -7 3 -6 8 4 9 -51 81 -82 108 -14 12 -36 31
-49 43 -13 12 -30 21 -38 21 -7 0 -13 3 -13 8 0 10 -71 41 -135 59 -69 19
-207 23 -285 7z m242 -272 c47 -21 108 -72 108 -90 0 -7 5 -12 11 -12 5 0 7
-4 4 -10 -3 -5 -2 -10 2 -10 5 0 17 -24 27 -53 19 -56 29 -217 14 -217 -5 0
-6 -5 -3 -10 4 -6 2 -16 -3 -23 -6 -7 -11 -16 -12 -22 -3 -30 -13 -55 -21 -55
-5 0 -9 -9 -9 -21 0 -11 -4 -17 -10 -14 -5 3 -10 2 -10 -4 0 -18 -53 -63 -99
-84 -66 -30 -181 -29 -236 2 -51 29 -81 57 -108 101 -11 19 -26 38 -31 42 -6
4 -8 8 -4 8 4 0 2 15 -3 33 -6 17 -12 44 -13 58 -2 15 -6 32 -10 38 -4 6 -2
11 5 11 10 0 10 3 1 12 -7 7 -8 17 -1 30 7 12 6 18 -1 18 -6 0 -8 4 -5 10 3 5
8 19 11 30 2 11 6 28 8 38 5 22 38 93 51 110 38 50 112 97 165 105 50 8 130
-2 172 -21z"/>
<path d="M1322 4052 c-2 -7 -2 -16 1 -19 4 -3 2 -14 -4 -24 -5 -11 -6 -19 -2
-19 10 0 9 -52 -1 -68 -4 -7 -3 -12 1 -12 10 0 9 -53 -2 -69 -3 -6 -3 -11 2
-11 10 0 9 -52 -1 -68 -4 -7 -3 -12 1 -12 10 0 9 -53 -2 -69 -3 -6 -3 -11 2
-11 10 0 9 -52 -1 -68 -4 -7 -3 -12 1 -12 10 0 9 -53 -2 -69 -3 -6 -3 -11 2
-11 10 0 9 -52 -1 -68 -4 -7 -3 -12 1 -12 10 0 9 -53 -2 -69 -3 -6 -3 -11 2
-11 10 0 9 -52 -1 -68 -4 -7 -2 -12 4 -12 7 0 8 -6 1 -18 -5 -10 -6 -24 -1
-32 4 -7 6 -23 4 -34 -6 -26 -6 -63 -1 -98 2 -16 1 -28 -2 -28 -3 0 -5 -19 -3
-42 3 -49 4 -70 2 -113 0 -16 1 -42 3 -57 2 -16 1 -28 -2 -28 -3 0 -5 -19 -3
-42 3 -49 4 -70 2 -113 0 -16 1 -42 3 -57 2 -16 1 -28 -2 -28 -6 0 -5 -58 2
-95 2 -11 1 -32 -4 -47 -13 -46 9 -59 73 -43 29 7 87 20 129 29 l76 17 -1 109
c-1 70 2 110 9 110 7 0 7 3 0 8 -9 6 -14 676 -5 707 1 6 1 15 0 20 -8 33 -3
261 5 267 7 5 7 8 0 8 -6 0 -10 71 -10 195 1 153 -2 195 -12 196 -7 0 -68 2
-134 2 -91 2 -123 -1 -127 -11z"/>
<path d="M1827 4062 c-14 -3 -16 -23 -14 -178 1 -96 -1 -174 -5 -174 -4 0 -5
-6 -2 -14 9 -22 10 -226 2 -226 -4 0 -5 -6 -2 -13 8 -21 10 -187 2 -187 -4 0
-5 -7 -2 -15 9 -22 10 -265 2 -265 -4 0 -5 -6 -3 -12 8 -21 11 -228 3 -228 -4
0 -5 -6 -2 -14 7 -19 11 -226 4 -226 -3 0 -3 -29 -2 -65 3 -61 5 -65 25 -60
12 3 65 14 117 25 52 11 104 22 115 25 21 4 21 7 21 815 0 725 -2 810 -15 811
-47 3 -230 4 -244 1z"/>
<path d="M7000 4060 c-4 -3 -7 -353 -6 -777 1 -507 -2 -774 -9 -777 -5 -3 -4
-5 3 -5 7 -1 10 -5 7 -11 -8 -12 -12 -12 146 -14 77 0 134 3 138 9 4 6 7 228
7 493 -1 266 2 489 5 494 4 6 10 1 14 -11 3 -11 11 -21 16 -21 5 0 9 -6 9 -14
0 -8 6 -21 13 -28 7 -7 33 -42 57 -78 25 -36 48 -66 53 -68 4 -2 7 -10 7 -18
0 -8 5 -14 10 -14 6 0 10 -7 10 -15 0 -9 7 -18 15 -21 8 -4 15 -10 15 -16 0
-5 15 -29 33 -53 53 -72 68 -94 69 -102 1 -5 6 -13 12 -19 22 -24 46 -54 46
-60 0 -8 44 -69 53 -72 4 -2 7 -10 7 -17 0 -7 4 -15 8 -17 4 -1 43 -55 87
-118 43 -63 83 -118 89 -122 6 -4 7 -8 3 -8 -5 0 -2 -7 6 -15 8 -8 25 -30 36
-49 12 -18 29 -35 39 -38 14 -3 195 -3 242 1 13 1 15 95 15 786 0 597 -3 788
-12 793 -13 8 -257 6 -279 -2 -10 -4 -12 -11 -7 -23 11 -22 10 -44 -1 -62 -5
-7 -5 -16 0 -20 11 -7 11 -52 0 -69 -4 -6 -3 -12 2 -12 6 0 7 -14 2 -34 -4
-19 -5 -37 -2 -40 9 -10 8 -51 -2 -64 -6 -8 -6 -16 0 -20 11 -8 11 -52 0 -70
-4 -7 -2 -12 4 -12 8 0 8 -6 0 -20 -6 -11 -7 -20 -2 -20 9 0 7 -61 -3 -87 -2
-7 0 -15 5 -18 5 -3 5 -18 0 -35 -5 -16 -5 -32 -1 -35 5 -2 5 -23 1 -45 -4
-22 -3 -43 1 -46 5 -3 7 -9 5 -13 -7 -10 -8 -70 -3 -103 2 -16 1 -28 -3 -28
-6 0 -6 -40 0 -47 2 -3 3 -36 1 -54 -1 -16 -31 10 -31 27 0 8 -4 14 -10 14 -5
0 -10 5 -10 10 0 6 -5 16 -10 23 -40 47 -50 61 -50 70 0 5 -8 17 -17 26 -10 9
-22 24 -28 33 -5 9 -44 65 -85 123 -41 58 -79 114 -85 123 -5 9 -18 25 -27 36
-10 11 -18 26 -18 33 0 8 -4 11 -10 8 -5 -3 -10 0 -10 8 0 7 -9 23 -20 35 -11
12 -20 25 -20 29 0 5 -11 20 -24 35 -14 14 -22 29 -19 32 4 3 2 6 -3 6 -5 0
-20 18 -34 40 -14 22 -28 40 -32 40 -5 0 -8 6 -8 13 0 7 -8 22 -18 33 -9 10
-39 52 -67 92 -27 40 -55 78 -62 84 -13 10 -248 18 -263 8z"/>
<path d="M3760 4052 c-10 -4 -38 -60 -45 -92 -2 -8 -4 -15 -5 -15 -1 0 -3 -7
-5 -15 -2 -8 -9 -28 -16 -45 -7 -16 -13 -33 -14 -37 -2 -5 -3 -9 -5 -10 -1 -2
-3 -12 -5 -22 -2 -10 -7 -22 -12 -25 -4 -3 -9 -14 -11 -25 -2 -10 -8 -30 -14
-45 -6 -14 -11 -29 -10 -33 1 -5 -2 -8 -6 -8 -5 0 -9 -6 -9 -12 0 -7 -17 -58
-38 -113 -21 -55 -38 -106 -38 -112 0 -7 -4 -13 -9 -13 -4 0 -7 -3 -7 -7 1 -5
0 -10 -1 -13 -1 -3 -3 -12 -5 -20 -9 -36 -41 -116 -48 -121 -5 -3 -8 -9 -7
-13 1 -4 -7 -35 -19 -69 -28 -79 -31 -87 -29 -90 1 -1 -5 -13 -12 -27 -8 -14
-15 -27 -16 -30 -1 -7 -13 -39 -25 -69 -5 -13 -8 -26 -5 -28 3 -3 -2 -13 -11
-22 -15 -15 -14 -16 12 -21 23 -4 174 -4 258 -1 9 1 17 8 17 17 0 9 6 30 14
47 8 18 24 64 36 102 13 39 25 75 29 80 3 6 7 19 8 29 2 11 8 25 14 33 6 7 8
13 4 13 -4 0 -2 7 5 15 7 8 9 15 6 15 -4 0 -2 9 4 21 6 11 13 28 15 37 6 29
45 136 55 155 6 10 8 22 5 27 -4 6 -1 10 4 10 6 0 11 8 11 18 0 10 3 22 7 26
4 3 8 14 9 22 1 9 6 23 10 32 9 20 11 28 13 44 2 20 22 -6 24 -31 1 -11 5 -21
10 -21 4 0 5 -4 2 -10 -3 -5 -2 -10 3 -10 5 0 9 -6 9 -12 0 -15 55 -181 63
-188 3 -3 7 -16 8 -30 2 -14 7 -29 11 -35 10 -13 35 -98 33 -107 -1 -5 3 -8
10 -8 6 0 8 -3 5 -7 -4 -3 0 -17 8 -30 9 -13 13 -23 11 -23 -3 0 11 -44 30
-97 19 -54 36 -105 37 -113 1 -8 16 -18 33 -21 33 -6 253 -3 260 3 6 6 -19 72
-31 80 -5 4 -6 8 -1 8 5 0 4 6 -2 13 -6 6 -10 14 -9 17 1 9 -46 137 -65 173
-5 10 -6 22 -3 27 3 4 -2 16 -11 24 -8 9 -13 16 -9 16 3 0 -1 13 -10 30 -8 16
-15 32 -14 35 1 6 -16 54 -36 100 -8 16 -11 33 -9 37 3 4 1 8 -4 8 -6 0 -13
15 -16 33 -3 17 -13 45 -21 61 -8 15 -12 32 -9 37 3 5 1 9 -4 9 -7 0 -53 122
-58 159 -2 8 -9 18 -16 22 -7 5 -10 9 -7 9 4 0 -9 42 -28 93 -19 50 -39 107
-44 125 -6 17 -13 32 -17 33 -23 3 -232 4 -242 1z"/>
</g>
</svg>
