<?xml version="1.0" encoding="UTF-8"?>
<svg width="21px" height="20px" viewBox="0 0 21 20" version="1.1" xmlns="http://www.w3.org/2000/svg" xmlns:xlink="http://www.w3.org/1999/xlink">
    <!-- Generator: Sketch 49.1 (51147) - http://www.bohemiancoding.com/sketch -->
    <title>Facebook-color</title>
    <desc>Created with Sketch.</desc>
    <defs></defs>
    <g id="Layouts" stroke="none" stroke-width="1" fill="none" fill-rule="evenodd">
        <g id="100" transform="translate(-620.000000, -56.000000)" fill="#FFFFFF">
            <g id="Group-9" transform="translate(564.000000, 55.000000)">
                <path d="M67.082648,21 L57.5038465,21 C56.8940303,21 56.4,20.5056631 56.4,19.8960845 L56.4,2.1038379 C56.4,1.49410404 56.8941079,1 57.5038465,1 L75.2962311,1 C75.9058145,1 76.4,1.49410404 76.4,2.1038379 L76.4,19.8960845 C76.4,20.5057407 75.9057369,21 75.2962311,21 L70.1997105,21 L70.1997105,13.2548978 L72.7993838,13.2548978 L73.188648,10.236494 L70.1997105,10.236494 L70.1997105,8.30943392 C70.1997105,7.43553638 70.4423798,6.84000404 71.6955374,6.84000404 L73.2938797,6.8393056 L73.2938797,4.13962106 C73.0174525,4.10283681 72.0686598,4.02065428 70.9648133,4.02065428 C68.6603476,4.02065428 67.082648,5.4273026 67.082648,8.01050369 L67.082648,10.236494 L64.4763007,10.236494 L64.4763007,13.2548978 L67.082648,13.2548978 L67.082648,21 L67.082648,21 Z" id="Facebook"></path>
            </g>
        </g>
    </g>
</svg>