<?xml version="1.0" encoding="UTF-8"?>
<svg width="27px" height="15px" viewBox="0 0 27 15" version="1.1" xmlns="http://www.w3.org/2000/svg" xmlns:xlink="http://www.w3.org/1999/xlink">
    <!-- Generator: Sketch 49.1 (51147) - http://www.bohemiancoding.com/sketch -->
    <title>Soundcloud-color</title>
    <desc>Created with Sketch.</desc>
    <defs></defs>
    <g id="Layouts" stroke="none" stroke-width="1" fill="none" fill-rule="evenodd">
        <g id="100" transform="translate(-790.000000, -58.000000)" fill="#FFFFFF">
            <g id="Group-9" transform="translate(564.000000, 55.000000)">
                <path d="M226.6,15.0572973 C226.6,15.3860748 226.71697,15.6346664 226.950861,15.8031731 C227.184776,15.9716545 227.434807,16.0312255 227.700977,15.9819367 C227.951008,15.9326226 228.126438,15.842205 228.227293,15.7107091 C228.328099,15.5792133 228.378526,15.3613925 228.378526,15.0572973 L228.378526,11.4820251 C228.378526,11.2272188 228.291828,11.0114696 228.118405,10.8347776 C227.945008,10.6580603 227.733282,10.5697143 227.483226,10.5697143 C227.241253,10.5697143 227.033568,10.6580603 226.860146,10.8347776 C226.686724,11.0114696 226.6,11.2272188 226.6,11.4820251 L226.6,15.0572973 L226.6,15.0572973 Z M229.38269,16.5860344 C229.38269,16.8244196 229.465372,17.0031579 229.630712,17.1223505 C229.796077,17.2415431 230.007803,17.3011141 230.265891,17.3011141 C230.532061,17.3011141 230.747804,17.2415178 230.913169,17.1223505 C231.078509,17.0031832 231.161191,16.8244196 231.161191,16.5860344 L231.161191,8.2519516 C231.161191,8.0053811 231.074468,7.79372458 230.90107,7.61703256 C230.727648,7.44034055 230.515922,7.35196928 230.265891,7.35196928 C230.023918,7.35196928 229.816208,7.44034055 229.642811,7.61703256 C229.469388,7.79374984 229.38269,8.0053811 229.38269,8.2519516 L229.38269,16.5860344 L229.38269,16.5860344 Z M232.153281,16.9805472 C232.153281,17.2189071 232.237971,17.3976707 232.407352,17.5168633 C232.576733,17.6360306 232.794509,17.6956269 233.060704,17.6956269 C233.318792,17.6956269 233.530519,17.6360306 233.695859,17.5168633 C233.861223,17.3976707 233.943906,17.2189071 233.943906,16.9805472 L233.943906,9.37384736 C233.943906,9.11906627 233.857182,8.90124548 233.683785,8.72043554 C233.510362,8.5396256 233.302677,8.44923326 233.060704,8.44923326 C232.810649,8.44923326 232.596914,8.5396256 232.419476,8.72043554 C232.242037,8.90124548 232.153305,9.11906627 232.153305,9.37384736 L232.153305,16.9805472 L232.153281,16.9805472 Z M234.93597,17.0175328 C234.93597,17.4695955 235.234395,17.6956269 235.83127,17.6956269 C236.428121,17.6956269 236.726546,17.4695955 236.726546,17.0175328 L236.726546,4.68900791 C236.726546,3.99861051 236.520869,3.60821565 236.109515,3.51779804 C235.843344,3.45203749 235.58119,3.53012657 235.323102,3.75204002 C235.064989,3.97395346 234.935945,4.28625925 234.935945,4.68900791 L234.935945,17.0175328 L234.93597,17.0175328 Z M237.767079,17.37506 L237.767079,3.96162494 C237.767079,3.5342445 237.892082,3.27946341 238.142137,3.1972564 C238.682536,3.06576055 239.218917,3 239.751258,3 C240.985295,3 242.134692,3.2958846 243.199349,3.88765379 C244.26403,4.47942298 245.125067,5.28694136 245.78241,6.31020893 C246.439779,7.33350176 246.820886,8.46153652 246.925733,9.69441427 C247.417736,9.48071142 247.941995,9.37387262 248.498533,9.37387262 C249.627748,9.37387262 250.593632,9.78071394 251.396159,10.5943966 C252.198712,11.4081045 252.6,12.3861506 252.6,13.5286108 C252.6,14.6792815 252.198712,15.6614456 251.396159,16.4751282 C250.593632,17.2888109 249.631789,17.6956522 248.510631,17.6956522 L237.984805,17.6833236 C237.912189,17.6586666 237.857745,17.6134452 237.821449,17.5477099 C237.785153,17.4819746 237.767079,17.4243741 237.767079,17.37506 L237.767079,17.37506 L237.767079,17.37506 Z" id="Soundcloud"></path>
            </g>
        </g>
    </g>
</svg>