<?xml version="1.0" encoding="UTF-8"?>
<svg width="20px" height="22px" viewBox="0 0 20 22" version="1.1" xmlns="http://www.w3.org/2000/svg" xmlns:xlink="http://www.w3.org/1999/xlink">
    <!-- Generator: Sketch 49.1 (51147) - http://www.bohemiancoding.com/sketch -->
    <title>Apple-color</title>
    <desc>Created with Sketch.</desc>
    <defs></defs>
    <g id="Layouts" stroke="none" stroke-width="1" fill="none" fill-rule="evenodd">
        <g id="100" transform="translate(-735.000000, -55.000000)" fill="#FFFFFF">
            <g id="Group-9" transform="translate(564.000000, 55.000000)">
                <path d="M183.79317,3.54721048 C184.518619,2.6273254 185.068556,1.32715264 184.869642,0 C183.683963,0.0809396089 182.29807,0.826097913 181.489415,1.79737322 C180.752266,2.67743087 180.146425,3.98659693 180.383041,5.25722031 C181.679228,5.29704774 183.017018,4.53390286 183.79317,3.54721048 L183.79317,3.54721048 Z M190.2,16.0311816 C189.681265,17.1669056 189.431648,17.6743841 188.763404,18.6803478 C187.831241,20.0845858 186.516853,21.8331383 184.886543,21.8459859 C183.439546,21.8614029 183.066421,20.914538 181.101989,20.9261008 C179.137557,20.9363788 178.72803,21.8639725 177.278433,21.8498401 C175.649423,21.8357078 174.40394,20.2580278 173.471777,18.8537899 C170.863802,14.930146 170.589484,10.3242968 172.197692,7.87426767 C173.341768,6.13470845 175.14629,5.11718194 176.841603,5.11718194 C178.566819,5.11718194 179.652392,6.05248409 181.081188,6.05248409 C182.467081,6.05248409 183.310838,5.11461243 185.306472,5.11461243 C186.817173,5.11461243 188.41758,5.92786279 189.556457,7.33081601 C185.822606,9.35302148 186.427147,14.6218046 190.2,16.0311816 L190.2,16.0311816 Z" id="Apple"></path>
            </g>
        </g>
    </g>
</svg>