<?xml version="1.0" encoding="UTF-8"?>
<svg width="23px" height="22px" viewBox="0 0 23 22" version="1.1" xmlns="http://www.w3.org/2000/svg" xmlns:xlink="http://www.w3.org/1999/xlink">
    <!-- Generator: Sketch 49.1 (51147) - http://www.bohemiancoding.com/sketch -->
    <title>Spotify-color</title>
    <desc>Created with Sketch.</desc>
    <defs></defs>
    <g id="Layouts" stroke="none" stroke-width="1" fill="none" fill-rule="evenodd">
        <g id="100" transform="translate(-676.000000, -55.000000)" fill="#FFFFFF">
            <g id="Group-9" transform="translate(564.000000, 55.000000)">
                <path d="M130.29,9.79 C126.77,7.7 120.885,7.48 117.53,8.525 C116.98,8.69 116.43,8.36 116.265,7.865 C116.1,7.315 116.43,6.765 116.925,6.6 C120.83,5.445 127.265,5.665 131.335,8.085 C131.83,8.36 131.995,9.02 131.72,9.515 C131.445,9.9 130.785,10.065 130.29,9.79 M130.18,12.87 C129.905,13.255 129.41,13.42 129.025,13.145 C126.055,11.33 121.545,10.78 118.08,11.88 C117.64,11.99 117.145,11.77 117.035,11.33 C116.925,10.89 117.145,10.395 117.585,10.285 C121.6,9.075 126.55,9.68 129.96,11.77 C130.29,11.935 130.455,12.485 130.18,12.87 M128.86,15.895 C128.64,16.225 128.255,16.335 127.925,16.115 C125.34,14.52 122.095,14.19 118.245,15.07 C117.86,15.18 117.53,14.905 117.42,14.575 C117.31,14.19 117.585,13.86 117.915,13.75 C122.095,12.815 125.725,13.2 128.585,14.96 C128.97,15.125 129.025,15.565 128.86,15.895 M123.8,0 C117.75,0 112.8,4.95 112.8,11 C112.8,17.05 117.75,22 123.8,22 C129.85,22 134.8,17.05 134.8,11 C134.8,4.95 129.905,0 123.8,0" id="Spotify"></path>
            </g>
        </g>
    </g>
</svg>