<?xml version="1.0" encoding="UTF-8"?>
<svg width="24px" height="17px" viewBox="0 0 24 17" version="1.1" xmlns="http://www.w3.org/2000/svg" xmlns:xlink="http://www.w3.org/1999/xlink">
    <!-- Generator: Sketch 49.1 (51147) - http://www.bohemiancoding.com/sketch -->
    <title>Youtube-color</title>
    <desc>Created with Sketch.</desc>
    <defs></defs>
    <g id="Layouts" stroke="none" stroke-width="1" fill="none" fill-rule="evenodd">
        <g id="100" transform="translate(-853.000000, -57.000000)" fill="#FFFFFF">
            <g id="Group-9" transform="translate(564.000000, 55.000000)">
                <path d="M298.522,13.4266595 L298.52125,6.75715188 L305.00575,10.1034036 L298.522,13.4266595 Z M311.806,3.24547918 C310.89325,2.29968647 309.87025,2.29523569 309.4015,2.24034262 C306.043,2 301.00525,2 301.00525,2 C300.99475,2 295.957,2 292.5985,2.24034262 C292.129,2.29523569 291.10675,2.29968647 290.19325,3.24547918 C289.474,3.96576524 289.24,5.60143028 289.24,5.60143028 C289.24,5.60143028 289,7.52268763 289,9.44320318 L289,11.2442892 C289,13.1655466 289.24,15.0860621 289.24,15.0860621 C289.24,15.0860621 289.474,16.7217272 290.19325,17.4420132 C291.10675,18.3878059 292.306,18.358134 292.84,18.4567932 C294.76,18.6392755 301,18.6956522 301,18.6956522 C301,18.6956522 306.043,18.6882342 309.4015,18.4478916 C309.87025,18.3922567 310.89325,18.3878059 311.806,17.4420132 C312.52525,16.7217272 312.76,15.0860621 312.76,15.0860621 C312.76,15.0860621 313,13.1655466 313,11.2442892 L313,9.44320318 C313,7.52268763 312.76,5.60143028 312.76,5.60143028 C312.76,5.60143028 312.52525,3.96576524 311.806,3.24547918 Z" id="Youtube"></path>
            </g>
        </g>
    </g>
</svg>